<mxfile host="app.diagrams.net" agent="Mozilla/5.0 (Macintosh; Intel Mac OS X 10_15_7) AppleWebKit/537.36 (KHTML, like Gecko) Chrome/142.0.0.0 Safari/537.36" version="28.2.8">
  <diagram name="Page-1" id="31Bma5AjqHY-WZWxDbZS">
    <mxGraphModel dx="1426" dy="697" grid="1" gridSize="10" guides="1" tooltips="1" connect="1" arrows="1" fold="1" page="1" pageScale="1" pageWidth="850" pageHeight="1100" math="0" shadow="0">
      <root>
        <mxCell id="0" />
        <mxCell id="1" parent="0" />
        <mxCell id="QUt6guYds509GggEDcvJ-1" value="观察到的情况" style="rounded=0;whiteSpace=wrap;html=1;" vertex="1" parent="1">
          <mxGeometry x="350" y="60" width="120" height="40" as="geometry" />
        </mxCell>
        <mxCell id="QUt6guYds509GggEDcvJ-2" value="重要紧急" style="rounded=0;whiteSpace=wrap;html=1;" vertex="1" parent="1">
          <mxGeometry x="200" y="120" width="120" height="40" as="geometry" />
        </mxCell>
        <mxCell id="QUt6guYds509GggEDcvJ-3" value="重要不紧急" style="rounded=0;whiteSpace=wrap;html=1;" vertex="1" parent="1">
          <mxGeometry x="520" y="120" width="120" height="40" as="geometry" />
        </mxCell>
        <mxCell id="QUt6guYds509GggEDcvJ-4" value="精度" style="rounded=0;whiteSpace=wrap;html=1;" vertex="1" parent="1">
          <mxGeometry x="160" y="190" width="50" height="40" as="geometry" />
        </mxCell>
        <mxCell id="QUt6guYds509GggEDcvJ-5" value="报错" style="rounded=0;whiteSpace=wrap;html=1;" vertex="1" parent="1">
          <mxGeometry x="240" y="190" width="50" height="40" as="geometry" />
        </mxCell>
        <mxCell id="QUt6guYds509GggEDcvJ-6" value="Hang" style="rounded=0;whiteSpace=wrap;html=1;" vertex="1" parent="1">
          <mxGeometry x="320" y="190" width="50" height="40" as="geometry" />
        </mxCell>
        <mxCell id="QUt6guYds509GggEDcvJ-8" value="研发效能" style="rounded=0;whiteSpace=wrap;html=1;" vertex="1" parent="1">
          <mxGeometry x="460" y="190" width="60" height="40" as="geometry" />
        </mxCell>
        <mxCell id="QUt6guYds509GggEDcvJ-9" value="&lt;div&gt;训练成本&lt;/div&gt;" style="rounded=0;whiteSpace=wrap;html=1;" vertex="1" parent="1">
          <mxGeometry x="550" y="190" width="60" height="40" as="geometry" />
        </mxCell>
        <mxCell id="QUt6guYds509GggEDcvJ-10" value="&lt;div&gt;推理成本&lt;/div&gt;" style="rounded=0;whiteSpace=wrap;html=1;" vertex="1" parent="1">
          <mxGeometry x="640" y="190" width="60" height="40" as="geometry" />
        </mxCell>
      </root>
    </mxGraphModel>
  </diagram>
</mxfile>
